#!OML:ASF H:\Swim 2\Project 1\Capture day 1\Session 1\male.ASF
:FULLY-SPECIFIED
:DEGREES
2037
root 2.44939 14.7675 10.7843 -63.9359 -76.2227 159.83
lowerback -17.281 0.317115 6.57691
upperback -10.5687 -1.28522 -0.954064
thorax -1.82973 -1.40107 -4.90823
lowerneck -19.9685 2.66782 -12.1593
upperneck 39.1357 4.90989 5.51508
head 17.1954 0.578087 5.52311
rclavicle 3.08116e-014 2.19533e-014
rhumerus -10.6919 21.5485 -0.725043
rradius 29.7004
rwrist -39.2722
rhand 15.2351 -4.70312
rfingers 7.12502
rthumb 40.0729 -29.9071
lclavicle 3.08116e-014 2.19533e-014
lhumerus 290.178 -79.0807 -315.366
lradius 29.4756
lwrist 86.2302
lhand -40.4931 -13.7382
lfingers 7.12502
lthumb -13.4431 375.808
rfemur -50.284 -4.26362 24.0324
rtibia 76.2935
rfoot 32.4441 3.93898
rtoes 20.3762
lfemur -51.966 14.363 -29.9049
ltibia 85.155
lfoot 37.7139 3.05801
ltoes 21.8428
2038
root 2.47095 14.7838 10.7787 -63.5413 -76.1776 159.814
lowerback -17.6523 0.517432 6.55895
upperback -10.5587 -1.0436 -1.01829
thorax -1.59639 -1.27242 -4.94077
lowerneck -20.6967 2.47859 -12.0366
upperneck 39.7942 4.60225 5.6761
head 17.7906 0.433565 5.60459
rclavicle 4.90004e-014 1.26725e-014
rhumerus -9.11095 19.462 2.35815
rradius 29.7963
rwrist -38.9433
rhand 15.7445 -4.73628
rfingers 7.12502
rthumb 40.5519 -29.7934
lclavicle 4.90004e-014 1.26725e-014
lhumerus 309.418 -78.8797 -335.973
lradius 29.3295
lwrist 85.7115
lhand -41.1213 -13.3154
lfingers 7.12502
lthumb -14.0485 376.19
rfemur -49.9473 -4.56249 24.0871
rtibia 77.2637
rfoot 32.2818 3.8056
rtoes 21.1013
lfemur -51.5339 14.2913 -29.6264
ltibia 85.9159
lfoot 37.7749 2.82326
ltoes 21.9697
2039
root 2.49341 14.7966 10.7732 -63.0932 -76.1371 159.767
lowerback -18.0409 0.717596 6.58226
upperback -10.536 -0.809358 -1.10235
thorax -1.34368 -1.14881 -5.01716
lowerneck -21.532 2.28106 -11.8972
upperneck 40.4396 4.27943 5.85899
head 18.4304 0.289849 5.69711
rclavicle -7.05686e-015 -2.22639e-014
rhumerus -7.52546 17.1018 5.2164
rradius 29.8777
rwrist -38.6191
rhand 16.2364 -4.75738
rfingers 7.12502
rthumb 41.0142 -29.6693
lclavicle -7.05686e-015 -2.22639e-014
lhumerus 327.414 -77.1548 -355.228
lradius 29.1741
lwrist 85.3753
lhand -41.4569 -12.8123
lfingers 7.12502
lthumb -14.3719 376.67
rfemur -49.5992 -4.85053 24.1619
rtibia 78.1281
rfoot 32.0685 3.71069
rtoes 21.7084
lfemur -51.11 14.1881 -29.3437
ltibia 86.5966
lfoot 37.7669 2.3732
ltoes 21.5979
2040
root 2.5163 14.8058 10.7677 -62.6279 -76.0982 159.72
lowerback -18.4204 0.909012 6.64719
upperback -10.5491 -0.595982 -1.20607
thorax -1.13916 -1.0434 -5.13841
lowerneck -22.2834 2.1106 -11.7305
upperneck 41.027 3.9498 6.06514
head 19.0361 0.15649 5.78881
rclavicle 7.95139e-015 -4.15957e-014
rhumerus -5.91588 14.6347 7.82738
rradius 30.0071
rwrist -38.3603
rhand 16.6497 -4.85865
rfingers 7.12502
rthumb 41.4022 -29.6459
lclavicle 7.95139e-015 -4.15957e-014
lhumerus 340.747 -74.0982 -369.718
lradius 29.0132
lwrist 85.0972
lhand -41.6833 -12.4261
lfingers 7.12502
lthumb -14.59 377.041
rfemur -49.2349 -5.12657 24.2461
rtibia 78.8838
rfoot 31.7958 3.66796
rtoes 22.1898
lfemur -50.6877 14.0628 -29.0662
ltibia 87.1927
lfoot 37.6902 1.76525
ltoes 20.8442
2041
root 2.53963 14.8116 10.7618 -62.1445 -76.0664 159.672
lowerback -18.7665 1.07955 6.73296
upperback -10.6496 -0.418696 -1.31351
thorax -1.05231 -0.969329 -5.27775
lowerneck -22.789 1.9987 -11.5064
upperneck 41.5361 3.62165 6.27607
head 19.5442 0.0412849 5.8569
rclavicle -7.95139e-016 -4.35338e-014
rhumerus -4.23926 12.2002 10.1883
rradius 30.2191
rwrist -38.2012
rhand 17.0383 -5.0427
rfingers 7.12502
rthumb 41.7667 -29.7104
lclavicle -7.95139e-016 -4.35338e-014
lhumerus 349.706 -70.0699 -379.732
lradius 28.8654
lwrist 84.7977
lhand -41.6356 -12.1946
lfingers 7.12502
lthumb -14.5441 377.276
rfemur -48.8616 -5.38447 24.3494
rtibia 79.5292
rfoot 31.4542 3.66452
rtoes 22.5798
lfemur -50.276 13.9229 -28.7858
ltibia 87.7043
lfoot 37.5475 1.08556
ltoes 19.8613
